# xmcd
#
# Track frame offsets:
#	150
#	5546
#	14509
#	23753
#	32214
#	47407
#	58163
#	70679
#	81404
#	94085
#	100421
#	111000
#	122911
#	136099
#
# Disc length: 1886 seconds
#
# Revision: 0
# Processed by: cddbd v1.4PL0 Copyright (c) Steve Scherf et al.
# Submitted via: audiograbber 1.81.03
#
DISCID=b5075c0e
DTITLE=Jacky Sprangers - Hey, Hillbilly (LP)
DYEAR=1900
DGENRE=
TTITLE0=Wildwood Flower
TTITLE1=Oh Susanna
TTITLE2=Cripple Creek
TTITLE3=Yellow Rose Of Texas
TTITLE4=On Top Of Old Smokey
TTITLE5=Oh Freedom
TTITLE6=Tarried Song
TTITLE7=Beans, Bacon And Gravy
TTITLE8=Down In The Valley
TTITLE9=Flop Eared Mule
TTITLE10=Red River Valley
TTITLE11=Worried Man
TTITLE12=Wandering
TTITLE13=Rexas-Polka
EXTD=
EXTT0=
EXTT1=
EXTT2=
EXTT3=
EXTT4=
EXTT5=
EXTT6=
EXTT7=
EXTT8=
EXTT9=
EXTT10=
EXTT11=
EXTT12=
EXTT13=
PLAYORDER=
